<svg width="60" height="60" viewBox="0 0 60 60" fill="none" xmlns="http://www.w3.org/2000/svg">
<circle cx="30" cy="30" r="29" stroke="white" stroke-width="2"/>
<path d="M13.966 23.608C14.434 23.608 14.956 23.656 15.532 23.752C16.12 23.848 16.684 23.998 17.224 24.202C17.776 24.406 18.232 24.682 18.592 25.03L17.278 26.506C16.894 26.218 16.546 25.99 16.234 25.822C15.934 25.642 15.61 25.51 15.262 25.426C14.914 25.342 14.482 25.3 13.966 25.3C13.222 25.3 12.592 25.444 12.076 25.732C11.572 26.008 11.164 26.386 10.852 26.866C10.552 27.346 10.33 27.892 10.186 28.504C10.054 29.104 9.988 29.728 9.988 30.376C9.988 30.928 10.054 31.504 10.186 32.104C10.318 32.692 10.528 33.244 10.816 33.76C11.104 34.264 11.476 34.678 11.932 35.002C12.4 35.314 12.964 35.47 13.624 35.47C14.188 35.47 14.68 35.356 15.1 35.128C15.532 34.9 15.868 34.582 16.108 34.174C16.348 33.754 16.468 33.256 16.468 32.68V31.564H13.732L13.966 29.98H18.97L18.934 33.292C18.922 33.916 18.922 34.54 18.934 35.164C18.958 35.776 18.988 36.394 19.024 37.018H17.746L17.134 35.65C16.546 36.202 15.952 36.598 15.352 36.838C14.752 37.078 14.038 37.198 13.21 37.198C12.238 37.198 11.386 37.024 10.654 36.676C9.922 36.328 9.31 35.854 8.818 35.254C8.338 34.642 7.978 33.934 7.738 33.13C7.498 32.314 7.378 31.45 7.378 30.538C7.378 29.158 7.636 27.952 8.152 26.92C8.668 25.876 9.418 25.066 10.402 24.49C11.386 23.902 12.574 23.608 13.966 23.608ZM20.6626 23.824H28.9426V25.606H23.3986V29.332H27.6466V31.114H23.3986V35.218H28.9426V37H20.9326V24.922L20.6626 23.824ZM36.1755 37.198C35.1675 37.198 34.2735 37.024 33.4935 36.676C32.7255 36.328 32.0775 35.848 31.5495 35.236C31.0215 34.612 30.6195 33.886 30.3435 33.058C30.0795 32.23 29.9475 31.342 29.9475 30.394C29.9475 29.434 30.0795 28.546 30.3435 27.73C30.6195 26.902 31.0215 26.182 31.5495 25.57C32.0895 24.958 32.7435 24.484 33.5115 24.148C34.2915 23.8 35.1855 23.626 36.1935 23.626C37.2255 23.626 38.1315 23.794 38.9115 24.13C39.7035 24.466 40.3635 24.94 40.8915 25.552C41.4315 26.164 41.8395 26.884 42.1155 27.712C42.3915 28.54 42.5295 29.446 42.5295 30.43C42.5295 31.402 42.3855 32.302 42.0975 33.13C41.8095 33.946 41.3895 34.66 40.8375 35.272C40.2975 35.884 39.6315 36.358 38.8395 36.694C38.0595 37.03 37.1715 37.198 36.1755 37.198ZM36.2475 35.488C36.9435 35.488 37.5195 35.344 37.9755 35.056C38.4435 34.756 38.8155 34.366 39.0915 33.886C39.3675 33.394 39.5655 32.854 39.6855 32.266C39.8055 31.678 39.8655 31.09 39.8655 30.502C39.8655 29.914 39.8055 29.32 39.6855 28.72C39.5775 28.108 39.3855 27.55 39.1095 27.046C38.8335 26.53 38.4555 26.116 37.9755 25.804C37.5075 25.492 36.9195 25.336 36.2115 25.336C35.5155 25.336 34.9335 25.486 34.4655 25.786C34.0095 26.074 33.6435 26.464 33.3675 26.956C33.0915 27.448 32.8935 27.988 32.7735 28.576C32.6535 29.164 32.5935 29.746 32.5935 30.322C32.5935 30.91 32.6535 31.51 32.7735 32.122C32.8935 32.722 33.0915 33.28 33.3675 33.796C33.6435 34.3 34.0155 34.708 34.4835 35.02C34.9515 35.332 35.5395 35.488 36.2475 35.488Z" fill="white"/>
<path d="M47.68 33H46.536V30.348H43.871V29.204H46.536V26.539H47.68V29.191H50.345V30.335H47.68V33Z" fill="white"/>
</svg>
