<svg width="60" height="60" viewBox="0 0 60 60" fill="none" xmlns="http://www.w3.org/2000/svg">
<circle cx="30" cy="30" r="29" stroke="white" stroke-width="2"/>
<path d="M28.3499 25.0545C28.3499 27.278 26.5592 29.0284 24.3915 29.0284C22.1767 29.0284 20.4331 27.2307 20.4331 25.0545C20.4331 22.8783 22.2238 21.0806 24.3915 21.0806C26.5592 21.0806 28.3499 22.8783 28.3499 25.0545Z" fill="white"/>
<path d="M29.7632 11.5713C19.7259 11.5713 11.5264 19.7556 11.5264 29.8796C11.5264 40.0036 19.7259 48.188 29.7632 48.188C39.8005 48.188 48 39.9563 48 29.8796C48 19.8029 39.8005 11.5713 29.7632 11.5713ZM29.7632 45.5387C28.3024 45.5387 26.8886 45.3495 25.5692 44.971C25.3336 44.1667 25.2393 43.0787 25.1451 41.8486C24.9566 39.2467 23.0245 40.524 21.5637 38.2532C20.1029 35.9351 22.3648 34.6578 19.9144 32.3397C18.1708 30.7312 16.8042 34.9416 16.1445 37.4963C14.8721 35.2255 14.1653 32.6235 14.1653 29.8323C14.1653 21.1749 21.1867 14.1732 29.7632 14.1732C31.5539 14.1732 33.2975 14.5044 34.9468 15.0721C34.0986 15.3086 32.4021 16.1602 32.1665 19.046C31.978 21.4114 32.5906 23.3984 33.109 24.6284C33.3446 25.1488 33.7687 25.5273 34.2399 25.9057C34.4755 26.1423 34.6169 26.9465 33.7687 29.8323C32.3079 34.7524 38.5282 39.3413 40.7901 33.9481C43.052 28.555 40.4602 26.2369 42.1096 25.6692C42.9107 25.3853 43.806 24.9596 44.4657 24.6284C45.0312 26.2842 45.3611 28.0346 45.3611 29.8323C45.3611 38.5371 38.3868 45.5387 29.7632 45.5387Z" fill="white"/>
</svg>
