<svg width="60" height="60" viewBox="0 0 60 60" fill="none" xmlns="http://www.w3.org/2000/svg">
<circle cx="30" cy="30" r="29" stroke="white" stroke-width="2"/>
<path d="M25.272 46.0903L14.7816 35.5838C14.3027 35.1043 13.998 34.4503 13.998 33.7528C13.998 33.0553 14.2592 32.4014 14.7816 31.9218L32.019 14.7453C32.4978 14.2657 33.1507 13.9605 33.8472 14.0041H44.2506C45.6871 14.0041 46.8623 15.1812 46.8623 16.6198L46.9059 27.0827C46.9059 27.7803 46.6447 28.4342 46.1223 28.9137L28.9284 46.0903C28.4496 46.5698 27.7967 46.875 27.1002 46.875C26.4038 46.875 25.7508 46.5698 25.272 46.0903ZM16.6098 33.7528L27.1002 44.2593L44.2941 27.0391L44.2506 16.5763H33.8472L16.6098 33.7528Z" fill="white"/>
<path d="M35.1533 22.1567C35.1533 20.2385 36.7204 18.6255 38.6792 18.6255C40.638 18.6255 42.205 20.1949 42.205 22.1567C42.205 24.1185 40.638 25.6879 38.6792 25.6879C36.7204 25.6879 35.1533 24.1185 35.1533 22.1567ZM36.8945 22.1567C36.8945 23.1158 37.678 23.9441 38.6792 23.9441C39.6803 23.9441 40.4638 23.1594 40.4638 22.1567C40.4638 21.154 39.6368 20.4129 38.6792 20.4129C37.7215 20.4129 36.8945 21.1976 36.8945 22.1567Z" fill="white"/>
</svg>
