<svg width="30" height="30" viewBox="0 0 30 30" fill="none" xmlns="http://www.w3.org/2000/svg">
<path fill-rule="evenodd" clip-rule="evenodd" d="M10.004 22.579C9.98454 22.8284 10.0365 23.0781 10.1538 23.299C10.2711 23.5199 10.4489 23.7029 10.6663 23.8264C10.8838 23.95 11.1319 24.0091 11.3818 23.9968C11.6316 23.9845 11.8727 23.9013 12.077 23.757L15.25 21.871L18.42 23.757C18.6245 23.9013 18.8659 23.9844 19.1159 23.9967C19.3659 24.009 19.6142 23.9499 19.8319 23.8264C20.0497 23.703 20.2278 23.5201 20.3455 23.2993C20.4633 23.0784 20.5158 22.8286 20.497 22.579V11.75C20.4971 11.5201 20.4519 11.2925 20.364 11.0801C20.2761 10.8678 20.1472 10.6748 19.9847 10.5123C19.8222 10.3497 19.6292 10.2208 19.4168 10.1329C19.2045 10.045 18.9768 9.99987 18.747 10H11.753C11.5232 10 11.2957 10.0453 11.0834 10.1332C10.8712 10.2212 10.6783 10.3501 10.5159 10.5126C10.3535 10.6751 10.2247 10.8681 10.1368 11.0804C10.049 11.2927 10.0039 11.5202 10.004 11.75V22.579Z" stroke="white" stroke-width="2"/>
</svg>
