<svg width="48" height="48" viewBox="0 0 48 48" fill="none" xmlns="http://www.w3.org/2000/svg">
<path fill-rule="evenodd" clip-rule="evenodd" d="M29.8222 10.1927C27.9933 8.36193 25.6911 7.07606 23.1732 6.47894C20.6552 5.88181 18.0208 5.99696 15.5646 6.81152C13.1083 7.62608 10.9271 9.10791 9.26495 11.0913C7.60277 13.0747 6.52514 15.4814 6.15261 18.0422C5.78008 20.603 6.12733 23.217 7.15553 25.5918C8.18372 27.9665 9.85231 30.0084 11.9747 31.489C14.097 32.9696 16.5895 33.8306 19.1732 33.9756C21.7569 34.1207 24.33 33.544 26.6047 32.3102L34.9622 40.2502C35.3982 40.6638 35.9782 40.891 36.5791 40.8835C37.18 40.8761 37.7542 40.6345 38.1797 40.2102L40.3247 38.0652C40.754 37.6333 40.995 37.0491 40.995 36.4402C40.995 35.8313 40.754 35.2471 40.3247 34.8152L32.2147 26.6902C33.647 24.0497 34.1879 21.0172 33.7568 18.0443C33.3257 15.0715 31.9456 12.3175 29.8222 10.1927ZM25.6797 25.7652C24.5495 26.896 23.1094 27.6662 21.5414 27.9784C19.9735 28.2906 18.3481 28.1307 16.871 27.5191C15.3939 26.9075 14.1313 25.8715 13.243 24.5423C12.3547 23.213 11.8806 21.6502 11.8806 20.0515C11.8806 18.4527 12.3547 16.8899 13.243 15.5606C14.1313 14.2314 15.3939 13.1954 16.871 12.5838C18.3481 11.9722 19.9735 11.8124 21.5414 12.1246C23.1094 12.4367 24.5495 13.2069 25.6797 14.3377C27.191 15.8553 28.0394 17.9098 28.0394 20.0515C28.0394 22.1931 27.191 24.2476 25.6797 25.7652Z" fill="#444A58"/>
</svg>
