<svg width="30" height="30" viewBox="0 0 30 30" fill="none" xmlns="http://www.w3.org/2000/svg">
<g clip-path="url(#clip0)">
<path d="M10.0801 17.1599C9.65793 17.5726 9.12308 17.851 8.54293 17.9602C7.96278 18.0694 7.36329 18.0043 6.82003 17.7734C6.27677 17.5424 5.81404 17.1557 5.49017 16.6622C5.16629 16.1686 4.99577 15.5902 5.00008 14.9999C5.00044 14.4116 5.17374 13.8365 5.49843 13.3459C5.82311 12.8554 6.28484 12.4711 6.8262 12.241C7.36755 12.0108 7.96463 11.9448 8.54317 12.0513C9.12171 12.1578 9.65617 12.432 10.0801 12.8399L19.0201 8.3699C18.9316 7.66794 19.094 6.95727 19.4787 6.36347C19.8634 5.76967 20.4456 5.33094 21.1224 5.12479C21.7993 4.91864 22.5272 4.95835 23.1776 5.23689C23.828 5.51543 24.359 6.01488 24.6768 6.647C24.9946 7.27913 25.0788 8.00324 24.9145 8.69142C24.7501 9.3796 24.3479 9.98755 23.7787 10.4079C23.2096 10.8282 22.5102 11.0338 21.8041 10.9885C21.0981 10.9431 20.4307 10.6496 19.9201 10.1599L10.9801 14.6299C11.0103 14.8756 11.0103 15.1242 10.9801 15.3699L19.9201 19.8399C20.3422 19.4272 20.8771 19.1488 21.4572 19.0396C22.0374 18.9305 22.6369 18.9955 23.1801 19.2265C23.7234 19.4574 24.1861 19.8441 24.51 20.3376C24.8339 20.8312 25.0044 21.4096 25.0001 21.9999C24.9967 22.4073 24.9103 22.8098 24.7462 23.1828C24.5822 23.5558 24.3439 23.8914 24.0458 24.1692C23.7478 24.4471 23.3962 24.6613 23.0127 24.7988C22.6291 24.9363 22.2216 24.9943 21.8149 24.9691C21.4082 24.9439 21.0109 24.8362 20.6473 24.6524C20.2836 24.4687 19.9612 24.2128 19.6997 23.9003C19.4381 23.5879 19.243 23.2254 19.1262 22.8351C19.0093 22.4447 18.9732 22.0347 19.0201 21.6299L10.0801 17.1599Z" fill="white"/>
</g>
<defs>
<clipPath id="clip0">
<rect width="20" height="20" fill="white" transform="translate(5 5)"/>
</clipPath>
</defs>
</svg>
