<svg width="40" height="40" viewBox="0 0 40 40" fill="none" xmlns="http://www.w3.org/2000/svg">
<path fill-rule="evenodd" clip-rule="evenodd" d="M29.6 20C29.6 14.7068 25.2932 10.4 20 10.4C14.7068 10.4 10.4 14.7068 10.4 20C10.4 25.2932 14.7068 29.6 20 29.6C25.2932 29.6 29.6 25.2932 29.6 20ZM32 20C32 26.6276 26.6276 32 20 32C13.3724 32 8 26.6276 8 20C8 13.3724 13.3724 8 20 8C26.6276 8 32 13.3724 32 20ZM27.2 21.2C27.2 21.5183 27.0736 21.8234 26.8485 22.0484C26.6235 22.2735 26.3183 22.4 26 22.4H21.2C20.5635 22.4 19.953 22.1473 19.5029 21.6972C19.0529 21.2471 18.8 20.6365 18.8 20V14C18.8 13.6817 18.9264 13.3766 19.1515 13.1516C19.3765 12.9265 19.6817 12.8 20 12.8C20.3183 12.8 20.6235 12.9265 20.8485 13.1516C21.0736 13.3766 21.2 13.6817 21.2 14V18.8C21.2 19.46 21.74 20 22.4 20H26C26.3183 20 26.6235 20.1265 26.8485 20.3516C27.0736 20.5766 27.2 20.8817 27.2 21.2Z" fill="#282828"/>
</svg>
