<svg width="40" height="40" viewBox="0 0 40 40" fill="none" xmlns="http://www.w3.org/2000/svg">
<path d="M20.8331 13.2742L21.4575 15.1936C22.0486 14.6912 22.7346 14.3127 23.4749 14.0806C24.3009 13.8118 25.0303 13.6606 25.6897 13.5738L25.0877 11.7216C24.337 11.8297 23.5969 12.0021 22.8757 12.2368C22.1448 12.4737 21.4555 12.8238 20.8331 13.2742ZM22.1309 17.2712L22.7553 19.1906C23.3464 18.6882 24.0324 18.3097 24.7727 18.0776C25.5987 17.8088 26.3281 17.6576 26.9875 17.5708L26.3855 15.7186C25.6348 15.8267 24.8947 15.9991 24.1735 16.2338C23.4422 16.4699 22.7529 16.82 22.1309 17.2712ZM23.4301 21.2668L24.0545 23.1862C24.6456 22.6838 25.3316 22.3053 26.0719 22.0732C26.8979 21.8044 27.6273 21.6532 28.2867 21.5664L27.6847 19.7142C26.934 19.8223 26.1939 19.9947 25.4727 20.2294C24.7414 20.4655 24.0521 20.8156 23.4301 21.2668ZM13.5433 24.3076L14.1453 26.1598C14.8125 25.7989 15.5117 25.5009 16.2341 25.2694C16.9695 25.0227 17.7469 24.926 18.5203 24.9852L17.8959 23.0658C17.128 23.0669 16.3651 23.1883 15.6349 23.4256C14.9136 23.6589 14.2138 23.954 13.5433 24.3076ZM10.9463 16.315L11.5483 18.1672C12.2157 17.8069 12.915 17.5089 13.6371 17.2768C14.3725 17.0301 15.1499 16.9334 15.9233 16.9926L15.3003 15.0718C14.5319 15.0735 13.7686 15.1954 13.0379 15.433C12.3166 15.6663 11.6168 15.9614 10.9463 16.315ZM12.2441 20.312L12.8461 22.1642C13.5133 21.8033 14.2125 21.5053 14.9349 21.2738C15.6703 21.0271 16.4477 20.9304 17.2211 20.9896L16.5981 19.0688C15.8302 19.0699 15.0673 19.1913 14.3371 19.4286C13.6153 19.6623 12.915 19.9579 12.2441 20.312ZM21.4897 7.97381C19.6503 8.56145 18.1154 9.84802 17.2155 11.5564C15.4837 10.7036 13.4861 10.5653 11.6533 11.1714C8.12108 12.3194 6.09668 14.8492 6.09668 14.8492L11.8297 32.471C12.0061 33.0128 12.7341 33.1388 13.0589 32.6712C13.7575 31.6646 15.1029 30.35 17.6187 29.5324C20.0239 28.7512 21.7753 29.608 22.7357 30.3416C23.1165 30.6328 23.6625 30.4256 23.8025 29.9664C24.1553 28.8086 25.0723 27.1104 27.4565 26.3362C29.9751 25.5172 31.8371 25.7916 32.9949 26.1962C33.5339 26.3838 34.0449 25.8574 33.8699 25.3156L28.1467 7.68401C28.1467 7.68401 25.0219 6.82721 21.4897 7.97381ZM21.3315 27.3582C19.8943 26.9257 18.3586 26.9472 16.9341 27.4198C15.1827 27.9882 13.9563 28.7484 13.1555 29.3854L8.61248 15.4106C9.11368 14.9094 10.2743 13.9518 12.3393 13.2812C14.2839 12.6498 15.8785 13.1902 16.9299 13.8104L21.3315 27.3582ZM30.9831 23.5936C29.9597 23.5488 28.5205 23.6552 26.7691 24.225C25.3388 24.6795 24.0837 25.5644 23.1753 26.759L18.7737 13.2112C19.2581 12.0912 20.2297 10.7164 22.1757 10.085C24.2393 9.41441 25.7415 9.50681 26.4415 9.61741L30.9831 23.5936Z" fill="#282828"/>
</svg>
