<svg width="60" height="60" viewBox="0 0 60 60" fill="none" xmlns="http://www.w3.org/2000/svg">
<circle cx="30" cy="30" r="29" stroke="white" stroke-width="2"/>
<path d="M43.3787 15.773C39.6959 12.0405 34.7689 10 29.5433 10C24.3177 10 19.3907 12.0405 15.7079 15.7233C8.09346 23.3377 8.09346 35.7796 15.7079 43.4438C19.3907 47.1266 24.3177 49.1671 29.5433 49.1671C32.181 49.1671 34.7191 48.6694 37.0582 47.6741C38.601 47.0271 40.094 46.181 41.4377 45.1359C41.7363 44.8871 42.0349 44.6382 42.3335 44.3894L44.3243 42.3987C44.5731 42.1001 44.8219 41.8015 45.0708 41.5029C47.7085 38.1187 49.1019 33.9382 49.1019 29.6084C49.1517 24.3828 47.1112 19.4558 43.3787 15.773ZM43.4782 20.4512C45.2698 23.1386 46.2154 26.274 46.2154 29.6084C46.2154 31.848 45.7675 33.988 44.9712 35.9787C44.5731 36.974 44.0257 37.9196 43.4284 38.8154L40.9898 36.3768C42.1842 34.3363 42.8312 32.047 42.8312 29.6084C42.8312 27.2196 42.1842 24.9303 41.0396 22.9396L43.4782 20.4512ZM41.2884 41.3536C41.0894 41.5526 40.8903 41.7517 40.6912 41.901L38.5014 39.7112L39.6461 38.5666L41.8856 40.8061C41.6866 41.0052 41.4875 41.2043 41.2884 41.3536ZM20.3861 43.5433L22.8247 41.1047C24.8154 42.2992 27.1047 42.8964 29.4935 42.8964C31.2852 42.8964 32.9772 42.548 34.5698 41.901C35.167 41.6522 35.7145 41.3536 36.2619 41.055L38.7005 43.4936C36.0131 45.2852 32.8279 46.2806 29.4935 46.2806C26.2586 46.2308 23.0735 45.2852 20.3861 43.5433ZM39.5466 33.7391C38.9991 35.0331 38.2028 36.2275 37.2075 37.2229C35.167 39.2633 32.4298 40.408 29.5433 40.408C26.6568 40.408 23.9195 39.2633 21.8791 37.2229C19.8386 35.1824 18.694 32.4452 18.694 29.5587C18.694 26.6721 19.8386 23.9349 21.8791 21.8944C23.9195 19.854 26.6568 18.7093 29.5433 18.7093C32.4298 18.7093 35.167 19.854 37.2075 21.8944C39.248 23.9349 40.3926 26.6721 40.3926 29.5587C40.3428 31.0517 40.094 32.4452 39.5466 33.7391ZM41.2884 17.8633C41.4875 18.0623 41.7363 18.3112 41.9354 18.5103L39.6461 20.7996L38.5014 19.6549L40.7908 17.3656C40.9898 17.5149 41.1391 17.6642 41.2884 17.8633ZM29.5433 12.9861C32.9275 12.9861 36.1126 13.9814 38.8498 15.8228L36.4112 18.2614C34.3707 17.0172 31.9819 16.3702 29.5433 16.3702C27.1047 16.3702 24.8154 17.0172 22.7749 18.2116L20.3363 15.773C23.0237 13.9316 26.2089 12.9861 29.5433 12.9861ZM17.7981 17.8633C17.9972 17.6642 18.1963 17.4651 18.3953 17.3158L20.7842 19.7047L19.5898 20.7996L17.2009 18.4107C17.4 18.2116 17.5991 18.0623 17.7981 17.8633ZM15.7079 20.4014L18.1465 22.84C16.9521 24.8805 16.3051 27.1698 16.3051 29.6084C16.3051 32.047 16.9521 34.4359 18.1963 36.4763L15.7577 38.915C11.9753 33.341 11.9753 25.9754 15.7079 20.4014ZM17.7981 41.3536C17.6488 41.2043 17.4498 41.0052 17.3005 40.8061L19.5898 38.5666L20.7344 39.7112L18.4451 42.0005C18.1963 41.8015 17.9972 41.6024 17.7981 41.3536Z" fill="white"/>
</svg>
