<svg width="60" height="60" viewBox="0 0 60 60" fill="none" xmlns="http://www.w3.org/2000/svg">
<circle cx="30" cy="30" r="29" stroke="white" stroke-width="2"/>
<path d="M24.4471 37.9928C24.2182 37.9928 23.9884 37.9372 23.7792 37.8251C23.3205 37.5788 23.0342 37.1003 23.0342 36.5799V22.4849C23.0342 21.9644 23.3205 21.4859 23.7792 21.2396C24.2384 20.9938 24.7951 21.0192 25.2289 21.3079L35.8383 28.3559C36.2325 28.6182 36.4694 29.0595 36.4694 29.5329C36.4694 30.0062 36.2325 30.4479 35.8383 30.7098L25.2289 37.7568C24.9929 37.9137 24.7202 37.9928 24.4471 37.9928ZM25.86 25.1199V33.9453L32.5029 29.5329L25.86 25.1199Z" fill="white"/>
<path d="M44.6188 43.6612H14.6366C10.9396 43.6612 9.25586 36.0985 9.25586 29.0721C9.25586 16.0622 13.738 15.4033 14.6366 15.4033H44.6188C45.5174 15.4033 50 16.0622 50 29.0721C50 36.0985 48.3163 43.6612 44.6188 43.6612ZM14.7586 40.8354H44.4977C45.1382 40.4554 47.1747 37.6277 47.1747 29.0721C47.1747 20.6744 45.1561 18.4015 44.583 18.2291H14.6734C14.0997 18.402 12.0817 20.6753 12.0817 29.0721C12.0817 37.6272 14.1172 40.4549 14.7586 40.8354Z" fill="white"/>
</svg>
