<svg width="250" height="100" viewBox="0 0 250 100" fill="none" xmlns="http://www.w3.org/2000/svg">
<path d="M188.364 12.0002H187.621C166.292 11.93 150.904 28.8157 150.904 50.5058C150.904 58.6537 153.091 66.0991 156.93 72.21C152.6 83.2799 143.365 83.3923 142.328 83.3923H119.064C117.733 83.3923 116.654 82.3106 116.654 80.9619V51.0116H136.862C137.451 51.0116 145.187 50.548 145.355 61.3931H146.77V36.3735H145.355C145.187 47.2046 137.451 46.741 136.862 46.741H116.654V17.9706H140.604C150.932 18.4483 151.591 30.0941 151.591 30.0941C151.591 30.0941 152.418 30.1784 152.838 30.0941L152.348 13.7L152.432 13.6719H95.3945V13.7H95.1143C94.6938 15.7932 93.4466 19.4738 89.6207 17.8863L89.2284 17.774C83.0061 14.4867 75.7328 12.3374 68.0671 12.2812C45.9108 12.1267 26.5013 27.8323 26.0108 50.7728C25.5483 71.7324 39.9268 88 68.2493 88.7446C72.958 88.871 89.5787 87.2836 96.7819 80.8777L96.852 80.6248V54.7343C96.852 54.7343 96.7679 48.7077 102.794 48.2582C103.565 48.202 104.322 48.1739 104.938 48.1739V79.3605L104.952 79.7398C104.952 79.7398 104.798 85.7664 99.0102 86.2159C97.6648 86.4407 95.4086 86.2861 95.4086 86.2861V87.7612H153.609L158.36 74.3032C164.946 83.308 175.457 88.9131 187.972 88.7726C209.441 89.0255 224.997 72.3084 224.997 50.5199C224.997 28.8578 209.637 11.9721 188.364 12.0002ZM75.5086 46.7269V48.202C75.5086 48.202 77.2743 48.1317 79.1102 48.2722C85.1362 48.6375 85.0522 54.7483 85.0522 54.7483V78.7845L85.0381 78.9671C80.7078 83.4906 72.7338 84.3897 70.5616 84.3897C53.2121 84.3897 39.4783 71.8588 39.156 50.7728C38.8617 32.0186 51.2362 15.7932 70.5616 16.8187C73.7148 16.9873 91.7789 19.9093 96.4316 36.9635C97.2584 37.1321 97.4266 36.795 97.4266 36.795L96.81 15.1329C97.4406 15.1329 98.2114 15.161 98.9962 15.2172C104.77 15.6668 104.938 21.6934 104.938 21.6934V25.992L104.924 26.6804V46.7269H75.5086ZM189.359 84.488L189.191 84.474C188.602 84.474 187.523 84.7409 186.514 84.488C172.262 84.2913 163.881 68.7823 164.19 50.7587V50.5901C163.867 32.5244 172.304 16.9873 186.626 16.8608C186.626 16.8608 187.677 16.8187 187.887 16.8187H187.944C188.126 16.8327 189.415 16.8749 189.415 16.8749C203.611 17.1277 211.978 32.6087 211.655 50.6042V50.7728C212.006 68.7823 203.611 84.2913 189.359 84.488Z" fill="white"/>
</svg>
